<?xml version="1.0" standalone="no"?>
<svg viewBox="0 0 200 200" xmlns="http://www.w3.org/2000/svg">
  <path fill="#FA4D56" d="M20,-33.7C31,-28.2,48.7,-33.3,56.2,-29.4C63.6,-25.5,61,-12.8,56.3,-2.7C51.6,7.3,44.8,14.6,41.6,25.9C38.4,37.2,38.7,52.4,32.4,62.4C26,72.3,13,77,-0.3,77.4C-13.5,77.9,-27.1,74.2,-31.2,62.9C-35.2,51.6,-29.8,32.8,-32.5,21.1C-35.2,9.4,-46,4.7,-48.8,-1.6C-51.5,-7.9,-46.2,-15.8,-44.4,-28.9C-42.5,-42.1,-44,-60.5,-37.2,-68.4C-30.4,-76.3,-15.2,-73.7,-5.4,-64.4C4.5,-55.1,8.9,-39.2,20,-33.7Z" transform="translate(100 100)" />
</svg>
